<?xml version="1.0" encoding="UTF-8"?>
<!-- Generated by Pixelmator Pro 3.6.16 -->
<svg width="1150" height="1155" viewBox="0 0 1150 1155" xmlns="http://www.w3.org/2000/svg">
    <g id="Group">
        <path id="Path" fill="#ffffff" stroke="none" d="M 465.478668 109.252197 C 465.478668 48.906616 514.370361 0 574.745728 0 C 635.068726 0 684.005371 48.906616 684.005371 109.252197 C 684.005371 169.597534 635.068726 218.504272 574.745728 218.504272 C 514.370361 218.504272 465.478668 169.597534 465.478668 109.252197"/>
        <path id="path1" fill="#ffffff" stroke="none" d="M 681.198059 757.802795 L 681.198059 996.751648 C 681.198059 996.751648 882.229736 784.445862 960.549316 695.630798 C 1038.823975 606.808289 1046.085449 568.883667 1042.896484 498.641602 C 1038.823975 343.649353 898.34729 274.208313 820.072693 271.77533 C 741.753113 269.379822 702.174133 289.55481 663.433533 313.764954 C 663.433533 312.948914 735.292664 352.505493 732.897095 451.808533 L 732.897095 710.962402 C 732.904602 761.029297 681.198059 757.802795 681.198059 757.802795 M 415.471527 710.96991 L 415.471527 451.81604 C 413.038513 352.505493 484.912537 312.948914 484.912537 313.772339 C 446.127045 289.562378 406.592987 269.379822 328.280914 271.782898 C 249.961349 274.208313 109.484688 343.656921 105.449699 498.64917 C 102.215706 568.898621 109.484688 606.815735 187.796783 695.638306 C 266.116333 784.445862 467.133057 996.759155 467.133057 996.759155 L 467.133057 757.810303 C 467.133057 757.802795 415.471527 761.029297 415.471527 710.96991 M 573.847412 374.320007 C 573.847412 374.320007 503.590363 374.320007 503.590363 446.156555 C 503.590363 488.146057 505.207397 670.589783 504.406372 669.796387 C 503.590363 668.980347 554.458374 667.378296 554.458374 723.089844 C 554.458374 762.623901 553.979309 1084.780762 555.251953 1108.15979 C 556.067932 1122.7052 550.423462 1142.064331 529.417419 1150.972778 C 511.533142 1158.503784 494.726837 1157.388428 470.509308 1130.782837 C 415.209473 1069.943237 225.85611 864.367554 141.914474 773.942871 C 57.95039 683.510742 43.434849 654.457275 23.244837 573.727173 C 5.195857 501.516296 6.288827 270.158447 271.07962 192.677246 C 458.381805 147.461182 574.64093 276.641357 574.64093 276.641357 C 574.64093 276.641357 690.885071 147.461182 878.202271 192.677246 C 1143.000488 270.165833 1144.100952 501.516296 1126.044434 573.727173 C 1105.861938 654.457275 1091.331543 683.510742 1007.344971 773.942871 C 923.403259 864.367554 734.079895 1069.943237 678.80249 1130.782837 C 654.584961 1157.395874 637.711304 1158.503784 619.827026 1150.972778 C 598.843506 1142.071777 593.221436 1122.712769 594.022461 1108.15979 C 595.325012 1084.780762 594.815979 762.623901 594.815979 723.089844 C 594.815979 667.378296 645.684021 668.972778 644.882996 669.796387 C 644.044556 670.589783 645.676575 488.146057 645.676575 446.156555 C 645.691528 374.320007 573.847412 374.320007 573.847412 374.320007"/>
    </g>
</svg>
